HIERARCHY
ROOT Hips
{
	OFFSET 0.000000 100.481300 0.000000
	CHANNELS 6 Xposition Yposition Zposition Xrotation Yrotation Zrotation
	JOINT Spine
	{
		OFFSET -0.279200 12.230698 -2.892100
		CHANNELS 3 Xrotation Yrotation Zrotation
		JOINT Spine1
		{
			OFFSET -0.325700 14.269203 -3.374200
			CHANNELS 3 Xrotation Yrotation Zrotation
			JOINT Spine2
			{
				OFFSET -0.372300 16.307602 -0.352600
				CHANNELS 3 Xrotation Yrotation Zrotation
				JOINT Neck
				{
					OFFSET -0.418800 17.814194 8.416900
					CHANNELS 3 Xrotation Yrotation Zrotation
					JOINT Head
					{
						OFFSET 0.000000 7.031097 3.806800
						CHANNELS 3 Xrotation Yrotation Zrotation
						JOINT HeadTop_End
						{
							OFFSET 0.000000 24.646606 12.978600
							CHANNELS 3 Xrotation Yrotation Zrotation
							End Site
							{
								OFFSET 0.000000 27.854965 0.000000
							}
						}
					}
				}
				JOINT LeftShoulder
				{
					OFFSET 16.952999 14.495407 -7.737500
					CHANNELS 3 Xrotation Yrotation Zrotation
					JOINT LeftArm
					{
						OFFSET 9.308998 -2.777710 0.208600
						CHANNELS 3 Xrotation Yrotation Zrotation
						JOINT LeftForeArm
						{
							OFFSET 29.972298 0.000000 0.000000
							CHANNELS 3 Xrotation Yrotation Zrotation
							JOINT LeftHand
							{
								OFFSET 26.026505 0.000000 0.000000
								CHANNELS 3 Xrotation Yrotation Zrotation
								JOINT LeftHandThumb1
								{
									OFFSET 12.240501 -7.147949 9.207150
									CHANNELS 3 Xrotation Yrotation Zrotation
									JOINT LeftHandThumb2
									{
										OFFSET 4.138618 -2.389435 2.389433
										CHANNELS 3 Xrotation Yrotation Zrotation
										JOINT LeftHandThumb3
										{
											OFFSET 2.726913 -1.574387 1.574386
											CHANNELS 3 Xrotation Yrotation Zrotation
											JOINT LeftHandThumb4
											{
												OFFSET 3.941010 -2.275345 2.275342
												CHANNELS 3 Xrotation Yrotation Zrotation
												End Site
												{
													OFFSET -0.005798 5.087799 0.009903
												}
											}
										}
									}
								}
								JOINT LeftHandIndex1
								{
									OFFSET 24.424698 -1.985611 5.953459
									CHANNELS 3 Xrotation Yrotation Zrotation
									JOINT LeftHandIndex2
									{
										OFFSET 6.426697 0.000000 0.000000
										CHANNELS 3 Xrotation Yrotation Zrotation
										JOINT LeftHandIndex3
										{
											OFFSET 5.337898 0.000000 0.000000
											CHANNELS 3 Xrotation Yrotation Zrotation
											JOINT LeftHandIndex4
											{
												OFFSET 4.409401 0.000000 0.000000
												CHANNELS 3 Xrotation Yrotation Zrotation
												End Site
												{
													OFFSET 0.000000 4.409363 0.014373
												}
											}
										}
									}
								}
								JOINT LeftHandMiddle1
								{
									OFFSET 23.810104 0.000000 0.000000
									CHANNELS 3 Xrotation Yrotation Zrotation
									JOINT LeftHandMiddle2
									{
										OFFSET 7.176498 0.000000 0.000000
										CHANNELS 3 Xrotation Yrotation Zrotation
										JOINT LeftHandMiddle3
										{
											OFFSET 6.774902 0.000000 0.000000
											CHANNELS 3 Xrotation Yrotation Zrotation
											JOINT LeftHandMiddle4
											{
												OFFSET 5.403328 0.000000 0.000000
												CHANNELS 3 Xrotation Yrotation Zrotation
												End Site
												{
													OFFSET -0.027702 5.403244 0.017414
												}
											}
										}
									}
								}
								JOINT LeftHandRing1
								{
									OFFSET 22.908401 -0.839279 -6.020567
									CHANNELS 3 Xrotation Yrotation Zrotation
									JOINT LeftHandRing2
									{
										OFFSET 6.337502 0.000000 0.000000
										CHANNELS 3 Xrotation Yrotation Zrotation
										JOINT LeftHandRing3
										{
											OFFSET 5.779297 0.000000 0.000000
											CHANNELS 3 Xrotation Yrotation Zrotation
											JOINT LeftHandRing4
											{
												OFFSET 4.965698 0.000000 0.000000
												CHANNELS 3 Xrotation Yrotation Zrotation
												End Site
												{
													OFFSET 0.000000 4.965668 0.016186
												}
											}
										}
									}
								}
								JOINT LeftHandPinky1
								{
									OFFSET 20.037003 -1.530319 -10.950146
									CHANNELS 3 Xrotation Yrotation Zrotation
									JOINT LeftHandPinky2
									{
										OFFSET 5.254700 0.000000 0.000000
										CHANNELS 3 Xrotation Yrotation Zrotation
										JOINT LeftHandPinky3
										{
											OFFSET 4.810204 0.000000 0.000000
											CHANNELS 3 Xrotation Yrotation Zrotation
											JOINT LeftHandPinky4
											{
												OFFSET 3.647202 0.000000 0.000000
												CHANNELS 3 Xrotation Yrotation Zrotation
												End Site
												{
													OFFSET 0.000000 3.647186 0.011889
												}
											}
										}
									}
								}
							}
						}
					}
				}
				JOINT RightShoulder
				{
					OFFSET -15.141001 14.495407 -7.737500
					CHANNELS 3 Xrotation Yrotation Zrotation
					JOINT RightArm
					{
						OFFSET -9.308998 -2.777710 0.208500
						CHANNELS 3 Xrotation Yrotation Zrotation
						JOINT RightForeArm
						{
							OFFSET -29.972300 0.000000 0.000000
							CHANNELS 3 Xrotation Yrotation Zrotation
							JOINT RightHand
							{
								OFFSET -26.026505 0.000000 0.000000
								CHANNELS 3 Xrotation Yrotation Zrotation
								JOINT RightHandThumb1
								{
									OFFSET -12.240601 -7.148026 9.207092
									CHANNELS 3 Xrotation Yrotation Zrotation
									JOINT RightHandThumb2
									{
										OFFSET -4.138618 -2.389435 2.389433
										CHANNELS 3 Xrotation Yrotation Zrotation
										JOINT RightHandThumb3
										{
											OFFSET -2.726974 -1.574417 1.574421
											CHANNELS 3 Xrotation Yrotation Zrotation
											JOINT RightHandThumb4
											{
												OFFSET -3.941010 -2.275345 2.275343
												CHANNELS 3 Xrotation Yrotation Zrotation
												End Site
												{
													OFFSET 0.005814 5.087799 0.009927
												}
											}
										}
									}
								}
								JOINT RightHandIndex1
								{
									OFFSET -24.424698 -1.985657 5.953444
									CHANNELS 3 Xrotation Yrotation Zrotation
									JOINT RightHandIndex2
									{
										OFFSET -6.426697 0.000000 0.000000
										CHANNELS 3 Xrotation Yrotation Zrotation
										JOINT RightHandIndex3
										{
											OFFSET -5.337898 0.000000 0.000000
											CHANNELS 3 Xrotation Yrotation Zrotation
											JOINT RightHandIndex4
											{
												OFFSET -4.409401 0.000000 0.000000
												CHANNELS 3 Xrotation Yrotation Zrotation
												End Site
												{
													OFFSET 0.000000 4.409363 0.014408
												}
											}
										}
									}
								}
								JOINT RightHandMiddle1
								{
									OFFSET -23.810097 0.000000 0.000000
									CHANNELS 3 Xrotation Yrotation Zrotation
									JOINT RightHandMiddle2
									{
										OFFSET -7.176498 0.000000 0.000000
										CHANNELS 3 Xrotation Yrotation Zrotation
										JOINT RightHandMiddle3
										{
											OFFSET -6.774902 0.000000 0.000000
											CHANNELS 3 Xrotation Yrotation Zrotation
											JOINT RightHandMiddle4
											{
												OFFSET -5.403328 0.000000 0.000000
												CHANNELS 3 Xrotation Yrotation Zrotation
												End Site
												{
													OFFSET 0.027702 5.403244 0.017457
												}
											}
										}
									}
								}
								JOINT RightHandRing1
								{
									OFFSET -22.908302 -0.839325 -6.020576
									CHANNELS 3 Xrotation Yrotation Zrotation
									JOINT RightHandRing2
									{
										OFFSET -6.337502 0.000000 0.000000
										CHANNELS 3 Xrotation Yrotation Zrotation
										JOINT RightHandRing3
										{
											OFFSET -5.779297 0.000000 0.000000
											CHANNELS 3 Xrotation Yrotation Zrotation
											JOINT RightHandRing4
											{
												OFFSET -4.965698 0.000000 0.000000
												CHANNELS 3 Xrotation Yrotation Zrotation
												End Site
												{
													OFFSET 0.000000 4.965668 0.016226
												}
											}
										}
									}
								}
								JOINT RightHandPinky1
								{
									OFFSET -20.037003 -1.530334 -10.950259
									CHANNELS 3 Xrotation Yrotation Zrotation
									JOINT RightHandPinky2
									{
										OFFSET -5.254700 0.000000 0.000000
										CHANNELS 3 Xrotation Yrotation Zrotation
										JOINT RightHandPinky3
										{
											OFFSET -4.810204 0.000000 0.000000
											CHANNELS 3 Xrotation Yrotation Zrotation
											JOINT RightHandPinky4
											{
												OFFSET -3.647202 0.000000 0.000000
												CHANNELS 3 Xrotation Yrotation Zrotation
												End Site
												{
													OFFSET 0.000000 3.647186 0.011917
												}
											}
										}
									}
								}
							}
						}
					}
				}
			}
		}
	}
	JOINT LeftUpLeg
	{
		OFFSET 15.427100 -6.655098 0.678600
		CHANNELS 3 Xrotation Yrotation Zrotation
		JOINT LeftLeg
		{
			OFFSET 4.081073 -39.591068 13.024000
			CHANNELS 3 Xrotation Yrotation Zrotation
			JOINT LeftFoot
			{
				OFFSET -4.081074 -37.707932 -15.979700
				CHANNELS 3 Xrotation Yrotation Zrotation
				JOINT LeftToeBase
				{
					OFFSET 5.346399 -15.068900 20.645000
					CHANNELS 3 Xrotation Yrotation Zrotation
					JOINT LeftToe_End
					{
						OFFSET 2.754700 0.931300 11.300900
						CHANNELS 3 Xrotation Yrotation Zrotation
						End Site
						{
							OFFSET 0.000000 11.669021 0.000000
						}
					}
				}
			}
		}
	}
	JOINT RightUpLeg
	{
		OFFSET -15.569500 -6.655098 0.678600
		CHANNELS 3 Xrotation Yrotation Zrotation
		JOINT RightLeg
		{
			OFFSET -4.081825 -39.591045 13.023800
			CHANNELS 3 Xrotation Yrotation Zrotation
			JOINT RightFoot
			{
				OFFSET 4.081824 -37.707954 -15.979600
				CHANNELS 3 Xrotation Yrotation Zrotation
				JOINT RightToeBase
				{
					OFFSET -5.346400 -15.068900 20.645000
					CHANNELS 3 Xrotation Yrotation Zrotation
					JOINT RightToe_End
					{
						OFFSET -2.754700 0.931300 11.300900
						CHANNELS 3 Xrotation Yrotation Zrotation
						End Site
						{
							OFFSET 0.000000 11.669021 0.000000
						}
					}
				}
			}
		}
	}
}
MOTION
Frames: 4
Frame Time: 0.033333
-1.391336 95.684654 -0.961761 -0.379894 -0.025920 -1.475249 -0.084745 -0.276015 0.400798 -0.419704 -2.066849 0.010412 -0.423812 -2.060627 0.011954 -1.650384 1.642216 -1.292094 9.286047 -0.255765 2.281126 -0.000000 -0.000000 -0.000000 -1.037901 12.072518 1.391824 7.049180 -17.648761 -69.160911 -0.000004 -31.301227 -0.000013 12.002392 12.239769 -13.280188 -12.625661 12.894081 7.049898 8.701414 13.156392 2.393943 -0.490772 2.024534 2.890277 -0.000000 0.000000 -0.000001 -0.214891 0.693170 -20.797586 0.977478 3.541398 -30.852204 0.163059 1.492537 -12.468606 0.000002 0.000002 0.000000 0.132251 1.931348 -27.292946 0.384654 2.273323 -19.205003 0.233715 1.782150 -14.941034 -0.000003 -0.000002 -0.000002 -0.305645 1.627603 -33.741818 0.209398 1.688417 -14.137933 0.128197 1.325177 -11.051195 0.000002 0.000002 -0.000001 3.250639 6.205877 -42.751472 0.273318 -2.129356 -16.682218 0.061553 0.920506 -7.651117 -0.000001 -0.000001 -0.000000 -0.058821 -2.537100 -5.642057 2.902158 21.478715 77.128648 -0.000010 27.253869 0.000026 0.604587 -13.672503 0.174903 5.087823 -22.740760 -6.412644 6.294237 0.800176 -0.381254 -1.895670 0.709189 -2.961353 0.000000 0.000001 0.000004 0.631299 -4.588389 8.654170 1.382947 -4.166561 36.710300 0.098702 -1.169745 9.645342 -0.000001 -0.000001 -0.000003 1.743689 -6.595246 17.257573 0.690736 -3.026239 25.709380 -1.800217 -0.952393 6.164784 -0.000001 -0.000000 0.000001 1.489966 -4.567619 27.393920 0.326211 -2.108692 17.585726 -2.037674 -1.328610 8.341725 -0.000000 0.000000 -0.000001 3.463022 -6.883107 37.218312 0.234187 -1.792818 14.882685 0.054592 -0.871422 7.169828 -0.000002 0.000000 0.000001 -6.809477 2.647324 5.743232 17.283912 8.805687 0.827609 -9.039585 3.892555 -6.227325 -0.049778 0.000000 -0.000001 -0.000000 -0.000002 -0.000000 -7.862997 -12.516871 -6.142568 14.323355 -4.363014 -0.606659 -4.869197 -5.032347 6.799976 -0.114235 0.000002 0.000002 -0.000000 -0.000000 -0.000000 
-1.003594 95.628998 -1.016989 -0.454015 -0.264128 -1.617897 -0.042196 -0.261811 0.429917 -0.353136 -2.045867 -0.013317 -0.356582 -2.040043 -0.010357 -1.628784 1.583255 -1.215103 9.372941 -0.288736 2.389382 0.000000 -0.000000 0.000000 -1.018700 12.045022 1.269573 6.925637 -17.996539 -68.982301 0.000015 -31.152059 0.000024 11.867279 12.373257 -13.360334 -12.624509 12.906841 7.055853 8.674039 13.143931 2.390190 -0.497935 2.008815 2.888116 -0.000000 -0.000001 -0.000002 -0.185772 0.784101 -20.949976 0.982212 3.549285 -30.928640 0.166579 1.508368 -12.603135 0.000001 0.000001 -0.000002 0.150379 1.974162 -27.439044 0.389287 2.286554 -19.321295 0.232121 1.776191 -14.889896 0.000002 0.000000 -0.000002 -0.320035 1.613389 -33.831624 0.212242 1.699705 -14.234402 0.127647 1.322342 -11.027378 -0.000003 -0.000000 -0.000002 3.234313 6.171242 -43.085984 0.280367 -2.106024 -16.883931 0.061551 0.920599 -7.651851 -0.000000 0.000002 0.000000 -0.022081 -2.369992 -5.485736 2.703605 21.326871 77.125519 -0.000001 27.198247 0.000012 0.509892 -13.617992 0.142848 5.302533 -22.908451 -6.463009 6.008094 0.958903 -0.286946 -1.951450 0.831307 -2.948334 -0.000001 0.000000 -0.000001 0.645309 -4.681778 8.639924 1.397337 -4.185737 36.907941 0.097658 -1.163607 9.594169 -0.000002 -0.000000 0.000000 1.838508 -6.746199 17.782932 0.686980 -3.018427 25.638032 -1.861271 -0.936318 6.019153 -0.000001 0.000000 -0.000002 1.582938 -4.719484 27.807776 0.320658 -2.091101 17.434259 -2.107435 -1.321699 8.234835 -0.000001 0.000000 -0.000000 3.620749 -7.031093 37.786283 0.235853 -1.799098 14.936196 0.051477 -0.846283 6.961949 0.000000 -0.000001 -0.000001 -6.830943 2.500000 5.608146 17.579374 8.817193 0.760376 -9.263833 4.230733 -5.936376 -0.066541 0.000002 0.000000 0.000000 0.000002 0.000000 -7.942392 -12.677700 -6.271449 14.288804 -4.209473 -0.638692 -4.661768 -4.812666 7.004647 -0.238313 0.000014 0.000001 -0.000000 -0.000000 0.000000 
-0.608643 95.539406 -1.082865 -0.545291 -0.506215 -1.748156 0.012577 -0.241039 0.449423 -0.266812 -2.024450 -0.042356 -0.269381 -2.019213 -0.037774 -1.621509 1.516393 -1.130568 9.417229 -0.338107 2.532811 -0.000000 -0.000001 0.000000 -0.990256 11.940367 1.138798 6.783320 -18.542905 -68.796493 -0.000002 -30.967282 -0.000013 11.604611 12.521708 -13.419145 -12.629057 12.894882 7.058543 8.683740 13.148112 2.389978 -0.489214 2.024102 2.884711 -0.000000 -0.000001 -0.000002 -0.169986 0.835530 -21.064095 0.989868 3.561997 -31.051990 0.171029 1.528118 -12.771034 0.000001 -0.000002 -0.000002 0.158753 1.995667 -27.544102 0.395426 2.303953 -19.474512 0.230924 1.771704 -14.851486 -0.000001 -0.000000 0.000001 -0.332818 1.599284 -33.892935 0.215694 1.713217 -14.350023 0.127238 1.320221 -11.009330 0.000001 -0.000001 -0.000000 3.229420 6.151036 -43.388924 0.288006 -2.081029 -17.100142 0.061566 0.920616 -7.651936 0.000000 -0.000002 -0.000000 0.034218 -2.116137 -5.285433 2.450680 21.225638 77.072626 -0.000005 27.121592 0.000023 0.341183 -13.604478 0.106870 5.514164 -23.047606 -6.447829 5.774641 1.087639 -0.211022 -1.998841 0.933698 -2.938618 -0.000002 0.000001 0.000004 0.661850 -4.763478 8.693385 1.411811 -4.204891 37.105716 0.096163 -1.154762 9.520596 0.000002 -0.000000 0.000000 1.882428 -6.835781 17.942214 0.699554 -3.044451 25.875799 -1.857744 -0.925241 5.950863 -0.000001 -0.000000 0.000003 1.632948 -4.805509 27.931362 0.330492 -2.122145 17.701757 -2.106491 -1.316652 8.204737 -0.000001 -0.000001 0.000000 3.700303 -7.112883 37.979588 0.242174 -1.822618 15.136232 0.050813 -0.840820 6.916713 -0.000002 -0.000000 0.000001 -6.888338 2.404365 5.456505 17.957887 8.826494 0.708928 -9.528169 4.522433 -5.652914 -0.084445 -0.000003 0.000001 0.000000 -0.000000 -0.000000 -8.075173 -12.836306 -6.433866 14.358876 -4.049371 -0.674962 -4.495738 -4.580883 7.219449 -0.293448 0.000007 -0.000000 -0.000000 -0.000000 -0.000000 
-0.208681 95.420967 -1.156262 -0.649173 -0.743576 -1.871417 0.078386 -0.213510 0.458211 -0.162723 -2.003168 -0.078554 -0.164117 -1.998689 -0.072153 -1.625550 1.439726 -1.034074 9.422729 -0.408223 2.727916 -0.000000 0.000000 -0.000000 -0.954825 11.745017 1.023244 6.623296 -19.289550 -68.619325 0.000004 -30.755635 0.000017 11.223685 12.673650 -13.447449 -12.639813 12.854286 7.056213 8.741842 13.174196 2.395637 -0.461825 2.076845 2.881342 0.000000 0.000001 -0.000001 -0.169248 0.841268 -21.108464 1.002301 3.582522 -31.251462 0.176835 1.553549 -12.987389 0.000001 -0.000001 0.000002 0.160886 2.001092 -27.570071 0.403878 2.327708 -19.683808 0.230507 1.770110 -14.837693 -0.000001 0.000001 0.000001 -0.329719 1.604102 -33.894851 0.219957 1.729814 -14.492330 0.127085 1.319433 -11.002673 0.000001 -0.000001 -0.000004 3.258586 6.170859 -43.606393 0.296189 -2.054623 -17.328958 0.061560 0.920513 -7.651139 0.000001 0.000000 0.000001 0.118548 -1.741215 -5.016437 2.200528 21.176093 76.912240 -0.000007 27.063814 0.000017 0.088254 -13.625361 0.062091 5.668822 -23.127053 -6.378745 5.648860 1.156632 -0.171220 -2.026633 0.992279 -2.934460 0.000000 0.000001 0.000001 0.675521 -4.812057 8.782127 1.427597 -4.225627 37.320471 0.094657 -1.145724 9.445411 0.000001 -0.000001 -0.000004 1.869096 -6.849039 17.744826 0.728086 -3.102495 26.407955 -1.794974 -0.921867 5.972276 0.000001 0.000000 0.000000 1.631930 -4.812984 27.785592 0.355241 -2.198140 18.358481 -2.039714 -1.314743 8.254035 0.000003 -0.000000 0.000001 3.692299 -7.118048 37.827340 0.251793 -1.857820 15.435997 0.052556 -0.855042 7.034297 0.000003 0.000000 -0.000000 -6.981733 2.372962 5.293894 18.407869 8.832192 0.678429 -9.826936 4.757287 -5.379470 -0.093746 -0.000002 0.000001 0.000000 0.000002 0.000000 -8.246968 -12.972417 -6.620430 14.513373 -3.899485 -0.714206 -4.364809 -4.348475 7.447142 -0.283126 0.000002 -0.000000 -0.000000 0.000002 0.000000 
